<?xml version="1.0" encoding="UTF-8" standalone="no"?>
<svg viewBox="0 0 410 173" version="1.1" xmlns="http://www.w3.org/2000/svg" xmlns:xlink="http://www.w3.org/1999/xlink">
    <defs>
        <linearGradient x1="0%" y1="49.7500002%" x2="100%" y2="49.7500002%" id="linearGradient-1">
            <stop stop-color="#4A90E2" offset="0%"></stop>
            <stop stop-color="#2EC7EB" offset="50%"></stop>
            <stop stop-color="#4A90E2" offset="100%"></stop>
        </linearGradient>
    </defs>
    <g id="∞-+-∞-copy" stroke="none" stroke-width="1" fill="none" fill-rule="evenodd">
        <path d="M238.341595,37.3558701 C245.482666,31.3333613 252.724207,26.0135584 260.066435,21.3963017 C267.408663,16.779045 275.605685,12.4629784 284.657747,8.44797261 C299.141046,2.02396327 313.523551,-0.736311838 327.805693,0.167064476 C342.087835,1.07044079 355.263417,5.18576004 367.332833,12.5131457 C379.402249,19.8405313 389.158214,29.2254667 396.60102,40.6682334 C404.043827,52.111 408.368636,64.4569578 409.575577,77.706477 C411.184833,93.3649998 408.217813,108.872727 400.674428,124.230125 C393.131043,139.587522 382.067577,151.93348 367.4837,161.268368 C352.899822,170.603257 336.656643,174.367268 318.753676,172.560516 C304.672691,171.155264 291.195379,167.692373 278.321335,162.17174 C265.447292,156.651107 254.484403,150.528315 245.432341,143.80318 C236.380279,137.078045 227.579796,129.449649 219.030626,120.917761 C210.481456,112.385874 205.804628,107.818873 205,107.216622 C200.172234,112.034629 194.489636,117.655553 187.952035,124.079563 C181.414435,130.503572 173.720298,137.078045 164.869393,143.80318 C156.018488,150.528315 145.156176,156.651107 132.282133,162.17174 C119.408089,167.692373 105.729623,171.155264 91.2463235,172.560516 C73.3433565,174.367268 57.1001779,170.603257 42.5163003,161.268368 C27.9324227,151.93348 16.8689574,139.587522 9.32557242,124.230125 C1.78218745,108.872727 -1.18483279,93.3649998 0.424422666,77.706477 C1.83252119,64.2562075 6.25790732,51.8098761 13.7007138,40.3671094 C21.1435203,28.9243428 30.8994852,19.5895942 42.9689011,12.3625837 C55.0383171,5.13557322 68.2138985,1.07044079 82.4960407,0.167064476 C96.7781829,-0.736311838 111.060111,2.02396327 125.342253,8.44797261 C134.394315,12.4629784 142.591337,16.779045 149.933565,21.3963017 C157.275793,26.0135584 164.517334,31.3333613 171.658405,37.3558701 C178.799476,43.3783789 189.91323,53.114622 205,66.5648915 C220.08677,53.114622 231.200524,43.3783789 238.341595,37.3558701 L238.341595,37.3558701 Z M184,86.9522255 C166.33062,71.8025363 152.125054,60.490938 141.382874,53.0170913 C130.640694,45.5432446 120.350443,40.0894383 110.511811,36.6555087 C98.2637183,32.2115999 87.1703253,30.9491447 77.2312992,32.8681054 C67.2922731,34.787066 58.8090903,38.8774207 51.7814961,45.1392923 C44.7539019,51.4011638 39.5334816,58.6224074 36.1200787,66.8032396 C32.7066758,74.9840717 31,82.8112938 31,90.2851404 C31.2007884,101.596908 34.9153182,111.848044 42.1437008,121.038856 C49.3720834,130.229667 58.5078188,136.743936 69.5511811,140.581857 C80.5945434,144.419778 91.5373474,145.025757 102.379921,142.399811 C118.643782,138.56189 131.092477,133.461571 139.726378,127.098701 C148.360279,120.735832 163.118006,107.353807 184,86.9522255 L184,86.9522255 Z M225,86.3954723 C238.650403,99.8240411 249.189159,109.795105 256.616584,116.308963 C264.044009,122.822821 271.370954,127.983723 278.597638,131.791825 C285.824322,135.599926 295.05828,138.806701 306.299788,141.412244 C317.340555,144.017787 328.381157,143.416517 339.421924,139.608415 C350.462691,135.800314 359.59628,129.336659 366.822964,120.217258 C374.049648,111.097857 377.763305,100.92637 377.964046,89.7024914 C378.365528,79.8815978 375.40464,69.6098989 369.081291,58.8870866 C362.757943,48.1642742 353.523985,40.3477619 341.379141,35.4373151 C329.234297,30.5268683 314.831331,30.8776093 298.169809,36.4895485 C288.132748,40.0972236 277.79473,45.6589728 267.155446,53.1749628 C256.516161,60.6909527 242.464486,71.7643452 225,86.3954723 L225,86.3954723 L225,86.3954723 Z" id="∞" fill="#4990E2"></path>
        <path d="M32.1715689,79.31717 L0,77.706477 C1.40955767,64.2562075 5.83952961,51.8098761 13.2900487,40.3671094 C20.7405678,28.9243428 30.5066423,19.5895942 42.5885652,12.3625837 C54.6704881,5.13557322 67.8597227,1.07044079 82.1566648,0.167064476 C96.4536068,-0.736311838 110.750334,2.02396327 125.047277,8.44797261 C134.108719,12.4629784 142.314235,16.779045 149.664071,21.3963017 C157.013908,26.0135584 164.262953,31.3333613 171.411424,37.3558701 C178.559895,43.3783789 189.685165,53.114622 204.787569,66.5648915 L183.858034,86.8305232 C166.254515,71.7419429 152.096269,60.4709111 141.382874,53.0170913 C130.640694,45.5432446 120.350443,40.0894383 110.511811,36.6555087 C98.2637183,32.2115999 87.1703253,30.9491447 77.2312992,32.8681054 C67.2922731,34.787066 58.8090903,38.8774207 51.7814961,45.1392923 C44.7539019,51.4011638 39.5334816,58.6224074 36.1200787,66.8032396 C34.3394807,71.0707622 33.0233131,75.2420612 32.1715689,79.31717 L32.1715689,79.31717 Z M225.47577,86.8633493 L224.588399,86.9074861 L204.787569,107.216622 C205.59303,107.818873 210.274705,112.385874 218.832734,120.917761 C227.390763,129.449649 236.200366,137.078045 245.261808,143.80318 C254.32325,150.528315 265.297499,156.651107 278.184883,162.17174 C291.072268,167.692373 304.563546,171.155264 318.659122,172.560516 C336.580641,174.367268 352.840652,170.603257 367.439642,161.268368 C382.038632,151.93348 393.113562,139.587522 400.664764,124.230125 C408.215966,108.872727 411.186061,93.3649998 409.575138,77.706477 L377.167843,79.3183753 C377.83793,82.8340134 378.10333,86.2953811 377.964046,89.7024914 C377.763305,100.92637 374.049648,111.097857 366.822964,120.217258 C359.59628,129.336659 350.462691,135.800314 339.421924,139.608415 C328.381157,143.416517 317.340555,144.017787 306.299788,141.412244 C295.05828,138.806701 285.824322,135.599926 278.597638,131.791825 C271.370954,127.983723 264.044009,122.822821 256.616584,116.308963 C249.27568,109.870984 238.895511,100.055876 225.47577,86.8633493 L225.47577,86.8633493 Z" id="∞-copy" fill="url(#linearGradient-1)"></path>
    </g>
</svg>
