<?xml version="1.0" encoding="UTF-8" standalone="no"?>
<svg width="662px" height="792px" viewBox="0 0 662 792" version="1.1" xmlns="http://www.w3.org/2000/svg" xmlns:xlink="http://www.w3.org/1999/xlink">
    <defs>
        <linearGradient x1="50%" y1="0%" x2="50%" y2="100%" id="linearGradient-1">
            <stop stop-color="#FFFFFF" offset="0%"></stop>
            <stop stop-color="#F8E71C" stop-opacity="0" offset="100%"></stop>
        </linearGradient>
        <rect id="path-2" x="264" y="493" width="133" height="299"></rect>
    </defs>
    <g id="Page-4" stroke="none" stroke-width="1" fill="none" fill-rule="evenodd">
        <g id="Artboard-1" transform="translate(-96.000000, -117.000000)">
            <g id="Pillar" transform="translate(96.000000, 117.000000)">
                <g id="Group">
                    <polygon id="Triangle-1-Copy" opacity="0.376865672" fill="url(#linearGradient-1)" transform="translate(335.500000, 278.500000) scale(1, -1) translate(-335.500000, -278.500000) " points="335.5 57 592 500 79 500 "></polygon>
                    <polygon id="Triangle-1-Copy-2" opacity="0.506121735" fill="url(#linearGradient-1)" transform="translate(331.500000, 338.500000) scale(1, -1) translate(-331.500000, -338.500000) " points="331.5 112 663 565 0 565 "></polygon>
                    <polygon id="Triangle-1" opacity="0.800023321" fill="url(#linearGradient-1)" transform="translate(335.500000, 239.500000) scale(1, -1) translate(-335.500000, -239.500000) " points="335.5 0 512 479 159 479 "></polygon>
                    <g id="א-+-0" transform="translate(298.000000, 195.000000)" fill="#FFFFFF">
                        <path d="M49.3720729,75 L47.6157849,75 C47.3555928,71.660868 46.2281106,68.8638448 44.2333044,66.6088465 L16.0026019,34.2150911 C11.1890479,36.6435507 8.78230703,39.7658092 8.78230703,43.5819601 C8.78230703,46.530804 10.3217539,50.3252153 13.4006938,54.9653079 C16.9566526,60.2558807 18.7346054,64.4622567 18.7346054,67.584562 C18.7346054,71.7476357 17.1517938,73.8291414 13.9861232,73.8291414 L1.69210755,73.8291414 L1.69210755,72.0728534 C4.29402862,71.3790078 5.59496964,69.8829256 5.59496964,67.584562 C5.59496964,66.1535054 4.77104033,63.3131175 3.12315698,59.0633131 C1.47527363,54.856874 0.651344319,51.6045215 0.651344319,49.3061578 C0.651344319,42.3243363 4.9444497,36.3833723 13.5307892,31.4830876 L5.52992194,22.4414571 C2.1907899,18.6253062 0.521248916,14.657436 0.521248916,10.5377277 C0.521248916,6.80830746 2.03901344,3.2957667 5.07458803,0 L6.76582827,0 C6.98265503,3.77278556 8.11013725,6.80831461 10.1483088,9.10667823 L34.6062446,36.8820468 C35.8638398,30.6374363 38.2705807,24.804884 41.8265395,19.3842151 C34.9314486,18.256716 31.4839549,14.7875399 31.4839549,8.97658283 C31.4839549,5.55072008 32.3729313,2.55855572 34.1509107,0 L35.8421509,0 C36.5359965,2.68865178 38.2055375,4.35819276 40.8508239,5.00867303 L46.4449263,6.30962706 C51.345211,7.48049154 53.7953166,10.23415 53.7953166,14.5706852 C53.7953166,16.4787606 53.6001754,18.0182075 53.2098873,19.189072 C51.7788307,19.6227255 49.4154545,19.839549 46.1196878,19.839549 C41.6096912,26.9514666 39.3547268,32.7623365 39.3547268,37.272333 C39.3547268,40.6114651 40.5038914,43.6036294 42.802255,46.2489159 L48.8516912,53.2090199 C52.2341886,57.0685362 53.925412,61.0580887 53.925412,65.1777971 C53.925412,68.9072173 52.4076474,72.1812522 49.3720729,75 L49.3720729,75 Z" id="א"></path>
                    </g>
                </g>
                <rect id="Rectangle-7" stroke="#D7D7D7" fill="#D7D7D7" x="240" y="359" width="180" height="103"></rect>
                <rect id="Rectangle-9" stroke="#DDDCDC" fill="#DDDCDC" x="272" y="404" width="119" height="2"></rect>
                <rect id="Rectangle-8" stroke="#F5F4F4" fill="#F5F4F4" x="228" y="359" width="209" height="45"></rect>
                <circle id="Oval-1-Copy-5" stroke="#F8F6F6" fill="#F8F6F6" cx="435.5" cy="404.5" r="45.5"></circle>
                <circle id="Oval-1-Copy-8" stroke="#F6F5F5" fill="#F6F5F5" cx="226.5" cy="404.5" r="45.5"></circle>
                <path d="M440,359.219721 C463.016579,361.479386 481,380.889567 481,404.5 C481,429.628956 460.628956,450 435.5,450 L435.5,373 L226.5,373 L226.5,450 C201.371044,450 181,429.628956 181,404.5 C181,381.232604 198.464653,362.044296 221,359.329035 L221,359 L440,359 L440,359.219721 L440,359.219721 Z" id="Oval-1-Copy-9" stroke="#FFFFFF" fill="#FFFFFF"></path>
                <path d="M436.5,438 C454.449254,438 469,423.449254 469,405.5 C469,387.550746 454.449254,373 436.5,373 C418.550746,373 404,387.550746 404,405.5 C404,423.449254 418.550746,438 436.5,438 Z" id="Oval-1-Copy-3" stroke="#D7D7D7" fill="#D7D7D7"></path>
                <path d="M437,420 C445.284271,420 452,413.284271 452,405 C452,396.715729 445.284271,390 437,390 C428.715729,390 422,396.715729 422,405 C422,413.284271 428.715729,420 437,420 Z" id="Oval-1-Copy-4" stroke="#F6F5F5" fill="#F6F5F5"></path>
                <path d="M227.5,438 C245.449254,438 260,423.449254 260,405.5 C260,387.550746 245.449254,373 227.5,373 C209.550746,373 195,387.550746 195,405.5 C195,423.449254 209.550746,438 227.5,438 Z" id="Oval-1-Copy-6" stroke="#D7D7D7" fill="#D7D7D7"></path>
                <path d="M227,422 C235.284271,422 242,415.284271 242,407 C242,398.715729 235.284271,392 227,392 C218.715729,392 212,398.715729 212,407 C212,415.284271 218.715729,422 227,422 Z" id="Oval-1-Copy-7" stroke="#F6F5F5" fill="#F6F5F5"></path>
                <rect id="Rectangle-6" stroke="#EDEDED" fill="#EDEDED" x="225" y="462" width="215" height="19" rx="9"></rect>
                <path d="M416,481 C416,487.627417 411.392011,493 405.682694,493 L257.317306,493 C251.619215,493 247,487.613932 247,481 L416,481 Z" id="Rectangle-5" stroke="#C9C9C9" fill="#C9C9C9"></path>
                <mask id="mask-3" fill="white">
                    <use xlink:href="#path-2"></use>
                </mask>
                <use id="Mask" fill="#EDEDED" xlink:href="#path-2"></use>
                <rect id="Rectangle-2" fill="#D7D7D7" mask="url(#mask-3)" x="285" y="514" width="21" height="299" rx="9"></rect>
                <rect id="Rectangle-2-Copy" fill="#D7D7D7" mask="url(#mask-3)" x="320" y="514" width="21" height="299" rx="9"></rect>
                <rect id="Rectangle-2-Copy-2" fill="#D7D7D7" mask="url(#mask-3)" x="355" y="514" width="21" height="299" rx="9"></rect>
            </g>
        </g>
    </g>
</svg>
