<?xml version="1.0" encoding="UTF-8" standalone="no"?>
<svg width="302px" height="434px" viewBox="0 0 302 434" version="1.1" xmlns="http://www.w3.org/2000/svg" xmlns:xlink="http://www.w3.org/1999/xlink">
    <defs>
        <rect id="path-1" x="83" y="134" width="133" height="299"></rect>
    </defs>
    <g id="Page-4" stroke="none" stroke-width="1" fill="none" fill-rule="evenodd">
        <g id="Artboard-1" transform="translate(-276.000000, -475.000000)">
            <g id="Pillar" transform="translate(277.000000, 476.000000)">
                <rect id="Rectangle-7" stroke="#D7D7D7" fill="#D7D7D7" x="59" y="0" width="180" height="103"></rect>
                <rect id="Rectangle-9" stroke="#DDDCDC" fill="#DDDCDC" x="91" y="45" width="119" height="2"></rect>
                <rect id="Rectangle-8" stroke="#F5F4F4" fill="#F5F4F4" x="47" y="0" width="209" height="45"></rect>
                <circle id="Oval-1-Copy-5" stroke="#F8F6F6" fill="#F8F6F6" cx="254.5" cy="45.5" r="45.5"></circle>
                <circle id="Oval-1-Copy-8" stroke="#F6F5F5" fill="#F6F5F5" cx="45.5" cy="45.5" r="45.5"></circle>
                <path d="M259,0.219720816 C282.016579,2.47938642 300,21.8895667 300,45.5 C300,70.6289561 279.628956,91 254.5,91 L254.5,14 L45.5,14 L45.5,91 C20.3710439,91 0,70.6289561 0,45.5 C0,22.2326039 17.4646527,3.04429603 40,0.329034559 L40,0 L259,0 L259,0.219720816 L259,0.219720816 Z" id="Oval-1-Copy-9" stroke="#FFFFFF" fill="#FFFFFF"></path>
                <path d="M255.5,79 C273.449254,79 288,64.4492544 288,46.5 C288,28.5507456 273.449254,14 255.5,14 C237.550746,14 223,28.5507456 223,46.5 C223,64.4492544 237.550746,79 255.5,79 Z" id="Oval-1-Copy-3" stroke="#D7D7D7" fill="#D7D7D7"></path>
                <path d="M256,61 C264.284271,61 271,54.2842712 271,46 C271,37.7157288 264.284271,31 256,31 C247.715729,31 241,37.7157288 241,46 C241,54.2842712 247.715729,61 256,61 Z" id="Oval-1-Copy-4" stroke="#F6F5F5" fill="#F6F5F5"></path>
                <path d="M46.5,79 C64.4492544,79 79,64.4492544 79,46.5 C79,28.5507456 64.4492544,14 46.5,14 C28.5507456,14 14,28.5507456 14,46.5 C14,64.4492544 28.5507456,79 46.5,79 Z" id="Oval-1-Copy-6" stroke="#D7D7D7" fill="#D7D7D7"></path>
                <path d="M46,63 C54.2842712,63 61,56.2842712 61,48 C61,39.7157288 54.2842712,33 46,33 C37.7157288,33 31,39.7157288 31,48 C31,56.2842712 37.7157288,63 46,63 Z" id="Oval-1-Copy-7" stroke="#F6F5F5" fill="#F6F5F5"></path>
                <rect id="Rectangle-6" stroke="#EDEDED" fill="#EDEDED" x="44" y="103" width="215" height="19" rx="9"></rect>
                <path d="M235,122 C235,128.627417 230.392011,134 224.682694,134 L76.3173061,134 C70.6192153,134 66,128.613932 66,122 L235,122 Z" id="Rectangle-5" stroke="#C9C9C9" fill="#C9C9C9"></path>
                <mask id="mask-2" fill="white">
                    <use xlink:href="#path-1"></use>
                </mask>
                <use id="Mask" fill="#EDEDED" xlink:href="#path-1"></use>
                <rect id="Rectangle-2" fill="#D7D7D7" mask="url(#mask-2)" x="104" y="155" width="21" height="299" rx="9"></rect>
                <rect id="Rectangle-2-Copy" fill="#D7D7D7" mask="url(#mask-2)" x="139" y="155" width="21" height="299" rx="9"></rect>
                <rect id="Rectangle-2-Copy-2" fill="#D7D7D7" mask="url(#mask-2)" x="174" y="155" width="21" height="299" rx="9"></rect>
            </g>
        </g>
    </g>
</svg>
