<?xml version="1.0" encoding="UTF-8" standalone="no"?>
<svg width="662px" height="792px" viewBox="0 0 662 792" version="1.1" xmlns="http://www.w3.org/2000/svg" xmlns:xlink="http://www.w3.org/1999/xlink">
    <defs>
        <linearGradient x1="50%" y1="0%" x2="50%" y2="100%" id="linearGradient-1">
            <stop stop-color="#FFFFFF" offset="0%"></stop>
            <stop stop-color="#F8E71C" stop-opacity="0" offset="100%"></stop>
        </linearGradient>
        <rect id="path-2" x="264" y="493" width="133" height="299"></rect>
    </defs>
    <g id="Page-4" stroke="none" stroke-width="1" fill="none" fill-rule="evenodd">
        <g id="Artboard-1" transform="translate(-96.000000, -117.000000)">
            <g id="Pillar" transform="translate(96.000000, 117.000000)">
                <g id="Group" fill="url(#linearGradient-1)">
                    <polygon id="Triangle-1-Copy" opacity="0.376865672" transform="translate(335.500000, 278.500000) scale(1, -1) translate(-335.500000, -278.500000) " points="335.5 57 592 500 79 500 "></polygon>
                    <polygon id="Triangle-1-Copy-2" opacity="0.506121735" transform="translate(331.500000, 338.500000) scale(1, -1) translate(-331.500000, -338.500000) " points="331.5 112 663 565 0 565 "></polygon>
                    <polygon id="Triangle-1" opacity="0.800023321" transform="translate(335.500000, 239.500000) scale(1, -1) translate(-335.500000, -239.500000) " points="335.5 0 512 479 159 479 "></polygon>
                </g>
                <rect id="Rectangle-7" stroke="#D7D7D7" fill="#D7D7D7" x="240" y="359" width="180" height="103"></rect>
                <rect id="Rectangle-9" stroke="#DDDCDC" fill="#DDDCDC" x="272" y="404" width="119" height="2"></rect>
                <rect id="Rectangle-8" stroke="#F5F4F4" fill="#F5F4F4" x="228" y="359" width="209" height="45"></rect>
                <circle id="Oval-1-Copy-5" stroke="#F8F6F6" fill="#F8F6F6" cx="435.5" cy="404.5" r="45.5"></circle>
                <circle id="Oval-1-Copy-8" stroke="#F6F5F5" fill="#F6F5F5" cx="226.5" cy="404.5" r="45.5"></circle>
                <path d="M440,359.219721 C463.016579,361.479386 481,380.889567 481,404.5 C481,429.628956 460.628956,450 435.5,450 L435.5,373 L226.5,373 L226.5,450 C201.371044,450 181,429.628956 181,404.5 C181,381.232604 198.464653,362.044296 221,359.329035 L221,359 L440,359 L440,359.219721 L440,359.219721 Z" id="Oval-1-Copy-9" stroke="#FFFFFF" fill="#FFFFFF"></path>
                <path d="M436.5,438 C454.449254,438 469,423.449254 469,405.5 C469,387.550746 454.449254,373 436.5,373 C418.550746,373 404,387.550746 404,405.5 C404,423.449254 418.550746,438 436.5,438 Z" id="Oval-1-Copy-3" stroke="#D7D7D7" fill="#D7D7D7"></path>
                <path d="M437,420 C445.284271,420 452,413.284271 452,405 C452,396.715729 445.284271,390 437,390 C428.715729,390 422,396.715729 422,405 C422,413.284271 428.715729,420 437,420 Z" id="Oval-1-Copy-4" stroke="#F6F5F5" fill="#F6F5F5"></path>
                <path d="M227.5,438 C245.449254,438 260,423.449254 260,405.5 C260,387.550746 245.449254,373 227.5,373 C209.550746,373 195,387.550746 195,405.5 C195,423.449254 209.550746,438 227.5,438 Z" id="Oval-1-Copy-6" stroke="#D7D7D7" fill="#D7D7D7"></path>
                <path d="M227,422 C235.284271,422 242,415.284271 242,407 C242,398.715729 235.284271,392 227,392 C218.715729,392 212,398.715729 212,407 C212,415.284271 218.715729,422 227,422 Z" id="Oval-1-Copy-7" stroke="#F6F5F5" fill="#F6F5F5"></path>
                <rect id="Rectangle-6" stroke="#EDEDED" fill="#EDEDED" x="225" y="462" width="215" height="19" rx="9"></rect>
                <path d="M416,481 C416,487.627417 411.392011,493 405.682694,493 L257.317306,493 C251.619215,493 247,487.613932 247,481 L416,481 Z" id="Rectangle-5" stroke="#C9C9C9" fill="#C9C9C9"></path>
                <mask id="mask-3" fill="white">
                    <use xlink:href="#path-2"></use>
                </mask>
                <use id="Mask" fill="#EDEDED" xlink:href="#path-2"></use>
                <rect id="Rectangle-2" fill="#D7D7D7" mask="url(#mask-3)" x="285" y="514" width="21" height="299" rx="9"></rect>
                <rect id="Rectangle-2-Copy" fill="#D7D7D7" mask="url(#mask-3)" x="320" y="514" width="21" height="299" rx="9"></rect>
                <rect id="Rectangle-2-Copy-2" fill="#D7D7D7" mask="url(#mask-3)" x="355" y="514" width="21" height="299" rx="9"></rect>
            </g>
        </g>
    </g>
</svg>
